<?xml version="1.0" standalone="no"?>
<!DOCTYPE svg PUBLIC "-//W3C//DTD SVG 20010904//EN"
 "http://www.w3.org/TR/2001/REC-SVG-20010904/DTD/svg10.dtd">
<svg version="1.0" xmlns="http://www.w3.org/2000/svg"
 width="1280.000000pt" height="610.000000pt" viewBox="0 0 1280.000000 610.000000"
 preserveAspectRatio="xMidYMid meet">

<g transform="translate(0.000000,610.000000) scale(0.100000,-0.100000)"
fill="#000000" stroke="none">
<path d="M2595 5589 c-272 -29 -552 -109 -765 -221 -609 -320 -1017 -889
-1125 -1568 -46 -287 -23 -627 61 -915 137 -467 445 -888 849 -1159 92 -62
254 -156 268 -156 4 0 8 467 10 1038 3 1028 3 1038 25 1112 132 460 580 746
1042 665 106 -19 166 -38 260 -85 320 -160 529 -520 506 -872 -15 -240 -110
-444 -284 -610 -95 -91 -170 -141 -274 -184 -43 -17 -74 -35 -70 -39 4 -5 2
-5 -5 -2 -6 4 -38 0 -70 -8 -64 -17 -294 -23 -425 -10 l-78 7 0 -971 c0 -534
2 -971 4 -971 2 0 16 19 31 43 75 114 175 234 287 343 224 219 391 328 714
467 207 89 291 133 414 214 429 283 730 690 876 1183 93 311 109 691 44 1011
-28 135 -107 367 -163 474 -11 22 -22 45 -23 50 -1 6 -23 48 -49 95 -171 308
-461 604 -773 787 -123 73 -259 136 -274 127 -6 -4 -8 -3 -5 3 13 21 -328 120
-473 138 -227 27 -374 31 -535 14z m-288 -145 c-3 -3 -12 -4 -19 -1 -8 3 -5 6
6 6 11 1 17 -2 13 -5z"/>
<path d="M6610 3830 c-587 -125 -846 -777 -515 -1300 93 -148 287 -273 487
-315 92 -20 294 -19 399 1 148 28 389 117 389 144 0 17 39 372 44 401 4 21 0
28 -15 32 -16 4 -26 -7 -53 -62 -89 -176 -221 -333 -325 -386 -103 -52 -261
-70 -383 -44 -144 31 -270 136 -337 281 -105 225 -119 543 -35 799 81 249 260
379 520 379 223 0 353 -86 544 -358 23 -34 46 -62 49 -62 21 1 33 20 27 46 -3
16 -10 70 -16 119 -5 50 -15 124 -21 167 l-11 76 -57 21 c-211 77 -499 102
-691 61z"/>
<path d="M9482 3835 c-138 -31 -248 -109 -297 -210 -49 -99 -49 -255 -1 -360
48 -105 150 -185 391 -307 174 -88 233 -126 285 -180 79 -84 107 -193 77 -299
-31 -106 -104 -167 -226 -189 -193 -35 -387 80 -518 305 -29 50 -56 96 -60
103 -7 11 -11 11 -26 0 -17 -13 -17 -21 5 -217 26 -234 7 -205 168 -248 130
-34 372 -43 484 -18 215 47 351 183 375 371 23 189 -46 345 -200 453 -37 26
-149 88 -250 139 -265 132 -335 193 -359 309 -25 119 33 230 137 261 102 30
234 7 329 -59 62 -42 80 -64 150 -177 93 -149 104 -122 66 158 l-17 125 -90
24 c-115 30 -328 38 -423 16z"/>
<path d="M10955 3834 c-143 -32 -309 -128 -417 -241 -153 -161 -230 -351 -231
-568 -1 -224 78 -416 241 -582 105 -107 223 -176 372 -219 81 -23 103 -26 218
-22 111 4 139 8 222 37 275 94 490 329 556 607 22 93 22 249 0 349 -10 45 -39
123 -66 180 -102 210 -279 364 -505 441 -102 34 -280 43 -390 18z m308 -94
c79 -25 173 -86 227 -148 53 -61 124 -205 152 -307 30 -109 32 -404 5 -505
-74 -271 -202 -422 -402 -476 -75 -20 -201 -18 -277 6 -171 53 -309 217 -370
442 -20 73 -23 105 -22 273 0 163 3 201 22 270 64 235 206 398 392 451 72 20
198 17 273 -6z"/>
<path d="M8200 3813 c-6 -15 -26 -68 -44 -118 -19 -49 -66 -178 -106 -285 -40
-107 -87 -235 -105 -285 -18 -49 -50 -135 -70 -190 -170 -465 -209 -555 -281
-647 l-44 -58 170 0 169 0 -26 51 c-51 102 -42 253 27 442 l32 88 254 -2 c178
0 256 -4 263 -12 15 -19 89 -226 105 -297 20 -82 20 -190 2 -235 l-15 -35 214
0 214 0 -47 63 c-56 73 -110 181 -158 315 -20 53 -51 140 -71 192 -19 52 -45
124 -59 160 -13 36 -91 247 -173 470 l-149 405 -46 3 c-43 3 -47 1 -56 -25z
m7 -375 c12 -35 42 -119 68 -188 101 -271 117 -316 122 -337 l5 -23 -221 0
c-161 0 -221 3 -221 12 0 17 214 598 220 598 3 0 15 -28 27 -62z"/>
<path d="M5340 3816 c0 -2 14 -32 31 -66 57 -116 60 -160 57 -767 -3 -534 -4
-550 -26 -613 -12 -36 -31 -80 -42 -98 -11 -18 -20 -35 -20 -37 0 -3 92 -5
205 -5 113 0 205 2 205 5 0 3 -12 29 -26 57 -59 117 -57 97 -61 692 -4 608 -1
650 58 769 16 32 29 61 29 63 0 2 -92 4 -205 4 -113 0 -205 -2 -205 -4z"/>
<path d="M7914 1920 c-48 -19 -84 -89 -75 -143 1 -5 -8 -11 -19 -14 -23 -6
-27 -23 -5 -23 21 0 29 -59 22 -167 l-6 -93 32 0 32 0 -3 130 -4 130 36 0 c20
0 36 5 36 10 0 6 -16 10 -35 10 l-35 0 0 48 c0 51 21 92 47 92 9 0 27 -10 40
-22 l23 -21 0 30 c0 39 -36 53 -86 33z"/>
<path d="M5607 1908 c-22 -8 -26 -14 -20 -27 4 -9 8 -103 8 -209 l0 -192 35 0
35 0 -3 109 c-3 104 -2 110 20 125 27 19 58 21 81 3 22 -15 33 -132 19 -194
l-10 -43 40 0 c37 0 40 2 34 23 -3 12 -6 66 -6 120 0 92 -2 100 -26 124 -21
21 -32 25 -66 20 -22 -3 -47 -12 -57 -21 -10 -9 -22 -16 -27 -16 -5 0 -8 41
-6 95 4 103 3 103 -51 83z"/>
<path d="M10972 1907 c-18 -8 -22 -16 -16 -31 3 -12 9 -42 11 -67 l5 -47 -45
5 c-68 8 -128 -23 -156 -79 -36 -76 -21 -168 33 -204 36 -23 109 -14 142 17
l24 22 0 -26 c0 -24 2 -26 33 -20 42 8 42 8 29 38 -8 17 -12 93 -12 215 0 202
0 201 -48 177z m-27 -182 c22 -21 25 -33 25 -99 0 -64 -3 -78 -22 -96 -42 -38
-108 -22 -127 31 -42 120 49 240 124 164z"/>
<path d="M10041 1877 c-24 -29 17 -70 46 -46 8 7 13 22 11 33 -4 25 -40 33
-57 13z"/>
<path d="M5400 1783 c-40 -38 -42 -43 -22 -43 22 0 22 -2 22 -119 0 -95 3
-123 16 -135 18 -18 66 -21 95 -6 25 14 25 33 -1 25 -10 -3 -28 -1 -40 5 -18
10 -20 20 -20 120 l0 110 40 0 c22 0 40 5 40 10 0 6 -18 10 -39 10 -37 0 -40
2 -43 33 l-3 32 -45 -42z"/>
<path d="M9045 1780 c-35 -36 -37 -40 -17 -40 21 0 22 -3 22 -119 0 -95 3
-123 16 -135 18 -18 66 -21 95 -6 25 14 25 33 -1 25 -10 -3 -28 -1 -40 5 -18
10 -20 20 -20 120 l0 110 40 0 c22 0 40 5 40 10 0 6 -18 10 -40 10 -38 0 -40
2 -40 30 0 17 -4 30 -8 30 -4 0 -26 -18 -47 -40z"/>
<path d="M11778 1785 c-42 -39 -45 -45 -23 -45 12 0 15 -19 15 -113 0 -132 10
-157 64 -157 19 0 44 9 57 20 l24 20 -28 -6 c-49 -11 -57 6 -57 127 l0 109 40
0 c22 0 40 5 40 10 0 6 -18 10 -40 10 -38 0 -40 2 -40 30 0 17 -3 30 -7 30 -5
0 -25 -16 -45 -35z"/>
<path d="M5972 1750 c-61 -37 -88 -133 -58 -205 34 -81 147 -100 209 -35 18
18 25 30 17 27 -77 -28 -87 -29 -122 -13 -37 18 -58 51 -58 91 0 25 1 25 95
25 105 0 107 1 81 65 -26 61 -102 82 -164 45z m98 -20 c11 -11 20 -31 20 -45
0 -24 -2 -25 -66 -25 -63 0 -65 1 -59 23 8 26 50 67 71 67 8 0 23 -9 34 -20z"/>
<path d="M6815 1756 c-17 -7 -37 -21 -45 -31 -14 -17 -13 -18 5 -10 11 5 40
10 64 13 50 5 71 -12 71 -59 0 -23 -7 -29 -60 -48 -90 -33 -126 -94 -80 -136
23 -21 91 -16 119 9 15 14 19 14 34 -4 21 -25 58 -25 88 0 l24 19 -32 1 -33 0
0 89 c0 48 -5 102 -10 118 -18 49 -82 67 -145 39z m93 -183 c-2 -40 -7 -50
-28 -60 -47 -22 -91 7 -74 50 5 14 78 57 97 57 4 0 7 -21 5 -47z"/>
<path d="M7538 1750 c-142 -75 -78 -291 83 -277 57 5 93 30 120 85 35 71 14
139 -61 190 -40 27 -92 28 -142 2z m122 -28 c59 -59 46 -195 -21 -223 -71 -29
-123 31 -116 135 3 51 8 63 35 87 41 36 66 36 102 1z"/>
<path d="M8220 1751 c-94 -49 -107 -195 -24 -260 45 -35 135 -23 174 24 19 23
7 27 -29 9 -28 -14 -40 -15 -72 -5 -50 15 -74 51 -74 112 0 55 18 93 52 108
36 17 49 14 86 -19 19 -16 37 -30 39 -30 11 0 -6 56 -20 68 -23 18 -92 15
-132 -7z"/>
<path d="M8499 1747 c-74 -50 -98 -127 -60 -197 39 -74 125 -101 200 -62 48
24 73 62 78 119 6 63 -20 110 -77 140 -55 29 -98 29 -141 0z m110 -13 c28 -20
51 -72 51 -114 0 -38 -25 -99 -48 -116 -56 -43 -132 24 -132 117 0 62 47 129
90 129 9 0 26 -7 39 -16z"/>
<path d="M8813 1750 c-28 -17 -33 -26 -33 -58 0 -45 21 -68 88 -97 59 -26 77
-59 46 -89 -26 -26 -63 -19 -101 19 -20 20 -38 34 -40 31 -2 -2 -1 -20 2 -40
6 -31 12 -36 42 -42 58 -11 115 2 140 31 46 53 19 107 -77 153 -59 29 -75 57
-44 79 28 20 50 16 89 -18 l35 -31 0 31 c0 20 -7 34 -19 41 -31 16 -93 12
-128 -10z"/>
<path d="M9582 1753 c-27 -11 -32 -17 -25 -31 4 -9 8 -68 8 -129 l0 -113 36 0
37 0 -9 38 c-13 56 -11 166 4 185 19 26 70 32 92 11 15 -16 17 -32 13 -126
l-4 -108 37 0 38 0 -10 32 c-5 18 -9 65 -9 104 0 61 3 73 23 92 13 12 33 22
45 22 35 0 45 -33 40 -146 l-4 -104 36 0 35 0 -5 126 c-5 117 -7 127 -29 145
-31 26 -74 24 -107 -4 l-27 -23 -23 23 c-30 30 -72 29 -117 -1 l-36 -25 -3 23
c-3 22 -5 22 -36 9z"/>
<path d="M10052 1753 c-27 -11 -32 -17 -25 -31 4 -9 8 -68 8 -130 l0 -112 35
0 35 0 -3 137 c-2 76 -6 141 -10 144 -4 4 -22 0 -40 -8z"/>
<path d="M10522 1750 c-38 -23 -71 -88 -72 -138 -1 -126 137 -188 228 -102 13
12 22 24 20 26 -2 1 -24 -4 -49 -13 -41 -15 -47 -15 -80 1 -38 18 -59 50 -59
91 0 25 1 25 95 25 105 0 107 1 81 65 -26 61 -102 82 -164 45z m102 -22 c9
-12 16 -33 16 -45 0 -22 -4 -23 -66 -23 -63 0 -65 1 -59 23 9 29 51 67 75 67
10 0 26 -10 34 -22z"/>
<path d="M11295 1756 c-17 -7 -37 -21 -45 -31 -14 -17 -13 -18 5 -11 11 5 40
11 65 13 54 6 73 -10 68 -57 -3 -28 -8 -33 -58 -50 -89 -30 -129 -99 -78 -134
28 -20 71 -20 109 -1 27 14 31 14 45 0 21 -21 57 -19 85 5 22 19 23 21 4 19
-45 -3 -45 -2 -45 96 0 52 -5 105 -11 118 -20 45 -84 59 -144 33z m95 -185 c0
-45 -2 -50 -29 -59 -53 -19 -92 8 -75 51 5 14 78 57 97 57 4 0 7 -22 7 -49z"/>
<path d="M11562 1756 c-29 -8 -32 -12 -25 -30 4 -12 8 -72 8 -133 l0 -113 36
0 37 0 -9 38 c-5 20 -9 63 -9 95 0 71 22 100 70 91 29 -6 30 -5 30 30 0 20 -3
36 -6 36 -13 0 -74 -42 -74 -51 0 -22 -19 -6 -22 19 -3 27 -5 27 -36 18z"/>
<path d="M6333 1733 c8 -16 32 -81 53 -146 21 -64 43 -116 48 -114 5 2 26 45
45 95 20 51 38 92 41 92 3 0 21 -41 41 -92 19 -50 39 -93 45 -95 5 -1 32 63
60 142 l51 145 -27 0 c-24 0 -26 -3 -22 -29 5 -34 -36 -167 -48 -154 -15 18
-53 127 -53 154 0 28 -3 29 -44 29 l-44 0 16 -30 c14 -27 13 -33 -5 -82 -34
-89 -36 -89 -64 1 -13 45 -22 89 -19 97 4 11 -5 14 -41 14 l-47 0 14 -27z"/>
<path d="M7034 1738 c7 -13 35 -77 61 -142 45 -111 47 -121 34 -145 -8 -14
-30 -31 -49 -37 -36 -12 -46 -29 -31 -52 7 -12 13 -11 38 2 40 20 50 38 117
206 32 80 64 155 72 168 14 21 13 22 -19 22 -31 0 -33 -2 -29 -28 2 -16 -9
-59 -26 -102 -24 -60 -32 -71 -38 -55 -4 11 -18 46 -30 77 -13 32 -24 69 -24
83 0 23 -4 25 -45 25 -45 0 -45 0 -31 -22z"/>
<path d="M9236 1743 c4 -10 10 -67 13 -126 5 -99 8 -111 30 -128 32 -26 74
-24 110 7 l31 26 0 -27 c0 -23 3 -26 23 -21 12 3 31 6 42 6 15 0 16 3 7 12 -8
8 -12 54 -12 140 l0 128 -40 0 c-38 0 -39 -1 -30 -26 6 -14 10 -61 10 -105 0
-66 -3 -82 -20 -99 -24 -24 -49 -25 -76 -6 -16 12 -19 29 -22 125 l-4 111 -35
0 c-30 0 -34 -3 -27 -17z"/>
<path d="M10190 1734 c-19 -50 -12 -58 25 -25 27 24 45 31 76 31 l41 0 -23
-37 c-13 -21 -49 -78 -81 -128 l-57 -90 106 -3 c58 -1 110 1 114 5 4 4 10 24
14 43 l7 35 -34 -32 c-28 -28 -42 -33 -81 -33 -26 0 -47 2 -47 4 0 2 32 54 70
115 39 61 73 118 76 126 5 13 -9 15 -95 15 -100 0 -102 0 -111 -26z"/>
</g>
</svg>
