<?xml version="1.0" standalone="no"?>
<!DOCTYPE svg PUBLIC "-//W3C//DTD SVG 20010904//EN"
 "http://www.w3.org/TR/2001/REC-SVG-20010904/DTD/svg10.dtd">
<svg version="1.0" xmlns="http://www.w3.org/2000/svg"
 width="626.000000pt" height="358.000000pt" viewBox="0 0 626.000000 358.000000"
 preserveAspectRatio="xMidYMid meet">

<g transform="translate(0.000000,358.000000) scale(0.100000,-0.100000)"
fill="#000000" stroke="none">
<path d="M0 1790 l0 -1790 3130 0 3130 0 0 1790 0 1790 -39 0 c-37 0 -44 -5
-84 -57 -62 -80 -143 -157 -156 -149 -6 4 -11 2 -11 -3 0 -6 -4 -11 -10 -11
-5 0 -10 7 -10 15 0 9 -11 20 -24 25 -20 7 -24 14 -21 44 2 20 7 41 11 47 4 8
3 9 -4 5 -8 -4 -12 0 -12 11 -1 10 -7 32 -15 48 l-15 30 3 -37 c2 -22 -2 -38
-8 -38 -5 0 -18 -12 -28 -26 -19 -25 -19 -25 3 -31 16 -4 18 -8 8 -14 -10 -7
-10 -9 2 -10 10 0 9 -3 -5 -9 -19 -9 -19 -9 3 -16 12 -3 22 -10 22 -15 0 -5
-11 -4 -25 1 -13 5 -27 6 -29 1 -3 -5 -17 -7 -31 -5 -23 2 -24 0 -13 -14 11
-13 11 -15 -4 -9 -12 4 -15 2 -11 -9 3 -9 19 -14 44 -14 32 0 37 -3 32 -17 -6
-16 -5 -16 10 -4 26 20 21 -5 -5 -29 -12 -11 -40 -26 -63 -32 -22 -6 -47 -17
-55 -23 -8 -6 -34 -20 -56 -30 -27 -13 -45 -29 -52 -48 -12 -32 -37 -28 -29 4
3 11 2 19 -3 19 -4 0 -11 -17 -15 -37 -4 -21 -10 -33 -12 -26 -3 8 -11 5 -24
-8 -11 -11 -24 -17 -28 -14 -5 2 -14 -2 -21 -10 -7 -8 -18 -15 -25 -15 -7 0
-18 -6 -25 -14 -14 -18 -37 -11 -51 16 -8 15 -7 22 7 32 17 13 14 48 -3 44
-16 -3 -63 14 -63 24 0 5 5 6 11 3 6 -4 5 2 -3 14 -7 12 -16 21 -21 21 -10 0
-26 43 -20 53 3 5 11 0 18 -10 13 -17 14 -16 8 5 -6 23 12 31 20 10 4 -9 6 -7
6 3 1 9 10 28 22 43 11 14 16 26 10 26 -6 0 -11 9 -11 20 0 18 -21 26 -53 21
-4 -1 -5 10 -1 24 13 52 11 60 -18 59 -16 -1 -28 2 -29 5 0 3 -2 28 -4 55 -5
58 -15 73 -16 25 -1 -19 -2 -38 -4 -44 -1 -5 -3 -18 -3 -28 -1 -10 -6 -16 -11
-12 -5 3 -13 0 -16 -6 -4 -5 -13 -8 -19 -6 -20 8 -35 -7 -42 -41 -6 -29 -4
-33 25 -43 42 -15 39 -25 -10 -33 -23 -4 -39 -9 -35 -13 3 -3 -2 -12 -12 -20
-9 -8 -12 -12 -5 -9 6 4 23 2 37 -4 17 -6 35 -6 51 0 24 9 25 8 15 -11 -7 -12
-18 -18 -26 -15 -9 3 -12 2 -9 -5 4 -6 13 -8 20 -5 15 5 30 -27 21 -43 -3 -5
-15 -7 -26 -4 -15 4 -19 2 -15 -10 4 -10 -3 -19 -22 -27 -16 -7 -34 -23 -40
-36 -10 -21 -9 -22 35 -22 33 0 50 -6 59 -18 10 -14 10 -19 0 -26 -14 -9 -49
0 -60 16 -4 6 -5 -1 -1 -16 4 -20 2 -28 -7 -29 -8 0 -5 -4 6 -9 17 -7 15 -9
-12 -9 -22 -1 -33 -6 -33 -16 0 -8 -6 -15 -14 -15 -8 0 -22 -7 -31 -16 -9 -9
-19 -14 -22 -10 -3 3 -11 -1 -17 -10 -6 -8 -21 -16 -33 -17 -13 0 -25 -7 -27
-14 -3 -7 -12 -10 -22 -6 -10 4 -20 0 -26 -11 -12 -21 -28 -12 -29 17 -1 21
-1 21 -8 -2 -12 -45 -28 -34 -39 26 -9 56 -9 56 -11 16 -1 -40 -3 -42 -31 -41
-27 1 -30 4 -30 32 0 17 -5 38 -10 46 -7 11 -10 7 -10 -17 0 -18 -3 -33 -7
-33 -12 0 -33 -51 -27 -62 3 -5 -9 -23 -27 -41 l-34 -31 -11 39 -12 40 -7 -30
c-3 -16 -11 -39 -16 -50 -5 -11 -10 -30 -12 -43 -5 -34 -23 -48 -40 -31 -7 8
-14 17 -14 22 -5 31 -12 24 -13 -13 -1 -25 -7 -65 -13 -90 -10 -39 -15 -45
-35 -42 -13 2 -29 -2 -37 -8 -9 -7 -15 -8 -20 0 -9 15 -35 12 -35 -5 0 -8 -9
-15 -21 -15 -11 0 -18 -4 -14 -9 3 -5 1 -12 -5 -16 -5 -3 -10 -16 -11 -28 -1
-16 -4 -11 -13 15 -6 20 -14 40 -18 43 -7 8 -10 2 -45 -87 -17 -45 -18 -46
-30 -25 l-12 22 -1 -22 c0 -31 -16 -37 -26 -10 -6 18 -8 15 -11 -20 -5 -49
-23 -59 -23 -13 0 47 -20 35 -21 -12 l-1 -43 -13 40 c-8 22 -14 34 -14 27 -1
-7 -6 -10 -13 -6 -7 4 -8 3 -4 -5 9 -14 -2 -51 -15 -51 -5 0 -13 10 -18 22 -7
20 -8 18 -15 -13 -7 -32 -8 -33 -21 -15 -8 11 -15 28 -15 39 0 26 -20 11 -21
-16 -1 -19 -2 -18 -14 8 -12 24 -14 26 -15 9 0 -33 -13 -37 -26 -7 l-12 28 -1
-32 c-1 -18 -5 -33 -11 -33 -5 0 -10 -18 -10 -40 0 -55 -16 -50 -25 7 -7 51
-24 43 -25 -12 0 -16 -9 -41 -20 -55 l-20 -25 0 28 c0 16 -4 26 -10 22 -6 -3
-10 -17 -10 -30 0 -13 -4 -26 -9 -29 -11 -7 -21 17 -21 50 0 13 -4 24 -10 24
-5 0 -10 -7 -10 -15 0 -20 -17 -19 -29 2 -8 16 -10 14 -16 -10 -4 -15 -11 -27
-16 -27 -5 0 -6 6 -3 13 3 8 -2 14 -11 14 -10 0 -19 -12 -22 -31 l-7 -31 -18
40 c-9 22 -18 34 -18 27 0 -7 -5 -10 -10 -7 -6 3 -13 -1 -16 -9 -3 -9 -9 -14
-14 -11 -4 2 -5 -7 -2 -22 3 -17 1 -24 -6 -19 -6 4 -8 -2 -5 -16 4 -19 3 -20
-6 -8 -9 13 -11 13 -11 -2 0 -33 -18 -18 -22 18 -4 30 -1 38 15 42 14 4 16 7
5 13 -19 13 -28 11 -28 -6 0 -8 -8 -15 -17 -15 -14 0 -15 -2 -5 -9 12 -7 11
-14 -2 -40 -18 -33 -36 -33 -36 -1 0 35 -19 31 -35 -7 -16 -37 -17 -37 -31
-18 -13 17 -16 18 -24 5 -8 -13 -11 -12 -23 4 -14 19 -14 19 -25 0 -10 -18
-11 -18 -29 -1 -11 9 -23 14 -26 10 -4 -3 -7 -1 -7 7 0 10 -3 10 -15 0 -8 -7
-15 -9 -15 -6 0 4 -7 0 -16 -9 -9 -9 -23 -14 -31 -11 -8 3 -25 -1 -38 -10 -13
-9 -29 -13 -35 -9 -5 3 -10 2 -10 -4 0 -5 -29 -29 -65 -53 -36 -23 -65 -46
-65 -50 0 -4 18 -8 39 -8 32 0 40 4 45 23 6 25 41 67 57 67 5 0 7 -11 3 -26
l-7 -26 27 17 c37 25 47 8 12 -20 -16 -12 -27 -27 -25 -33 5 -14 137 50 132
64 -2 6 3 14 11 17 19 7 56 -3 56 -15 0 -7 16 -8 41 -4 47 8 65 0 48 -20 -17
-21 15 -29 60 -15 37 11 99 15 74 4 -7 -2 -13 -9 -13 -14 0 -5 11 -3 25 3 14
6 25 17 25 25 0 7 8 13 18 13 9 0 28 3 42 7 23 6 24 5 10 -12 -8 -10 -33 -26
-55 -36 -22 -10 -38 -19 -35 -19 45 -9 60 -7 60 6 0 10 13 14 44 14 25 0 48 5
51 10 3 6 13 10 22 10 11 0 9 -5 -8 -20 l-24 -19 155 -1 c111 0 160 4 169 13
11 10 13 10 7 0 -6 -10 26 -13 145 -13 84 0 150 -2 148 -4 -2 -2 -179 -6 -392
-9 -214 -3 -391 -8 -395 -11 -24 -24 80 -47 106 -23 16 14 17 14 18 -9 1 -14
4 -27 6 -29 2 -2 52 -6 112 -7 59 -2 110 -6 112 -9 2 -3 181 -4 399 -1 277 3
395 1 395 -6 0 -7 -89 -11 -282 -13 -312 -1 -696 -14 -543 -18 73 -1 86 -4 70
-13 -12 -7 -100 -13 -230 -17 -250 -6 -209 -16 110 -26 115 -4 221 -9 235 -11
14 -1 62 -3 108 -3 57 -1 81 -4 77 -12 -5 -7 -120 -9 -381 -5 -320 4 -374 3
-374 -9 0 -9 6 -12 16 -8 13 5 15 2 10 -15 -6 -17 -4 -21 8 -16 9 3 13 10 10
15 -3 5 1 9 8 9 9 0 9 3 -2 10 -13 8 -13 10 2 10 35 0 45 -10 40 -43 l-5 -32
21 25 21 25 1 -28 0 -28 28 21 27 22 3 -21 c2 -12 8 -21 13 -21 6 0 7 -5 4
-10 -3 -6 -1 -10 4 -10 6 0 11 5 11 10 0 21 20 9 21 -12 1 -21 2 -20 13 6 l13
29 11 -39 10 -39 1 36 c1 52 41 65 41 15 0 -12 5 -28 10 -36 8 -13 11 -12 24
5 14 17 17 18 26 5 6 -8 8 -25 5 -37 -5 -23 9 -40 20 -23 12 20 24 10 36 -30
12 -41 29 -54 29 -22 0 12 2 14 8 4 5 -7 16 -10 24 -7 11 4 18 -1 23 -14 8
-27 21 -27 28 0 8 28 24 16 33 -24 7 -32 7 -32 16 -7 7 20 11 22 18 10 15 -24
11 -48 -9 -55 -10 -3 -21 -15 -24 -25 -5 -18 0 -20 39 -20 26 0 44 5 44 11 0
8 4 8 13 2 6 -6 29 -13 49 -16 32 -5 37 -3 40 15 2 16 6 13 20 -16 14 -33 14
-37 1 -32 -10 4 -13 2 -10 -8 4 -10 1 -13 -7 -10 -7 3 -18 -1 -25 -9 -9 -12 1
-25 55 -71 37 -31 69 -55 71 -52 2 2 0 21 -6 43 -13 47 -15 105 -2 83 5 -8 12
-36 15 -62 8 -53 25 -68 75 -68 16 0 33 -5 36 -10 4 -7 12 -7 25 0 24 13 26 8
35 -62 4 -32 10 -58 13 -58 2 0 10 8 17 17 20 27 40 3 54 -64 8 -32 14 -62 15
-68 2 -5 11 7 21 28 l18 38 30 -31 c21 -22 27 -34 20 -41 -8 -8 -6 -16 7 -29
11 -11 21 -41 25 -75 5 -35 11 -52 16 -44 4 7 6 16 4 19 -2 4 2 24 10 46 17
49 47 54 56 9 7 -29 7 -29 8 7 2 65 22 90 37 46 7 -22 8 -21 22 12 l14 35 12
-30 c12 -28 13 -29 18 -7 7 24 28 30 28 8 0 -10 8 -13 23 -11 23 5 31 -5 57
-68 11 -25 42 -51 64 -52 19 0 15 -21 -6 -30 -22 -10 -35 -55 -17 -55 5 0 9
-4 9 -10 0 -5 -7 -10 -15 -10 -8 0 -15 -4 -15 -10 0 -5 8 -10 18 -10 35 0 42
-13 25 -48 -18 -37 -17 -39 19 -44 32 -5 33 -6 41 -39 7 -26 6 -27 -45 -31
-30 -2 -48 -27 -41 -56 5 -22 3 -22 -82 -22 -52 0 -84 -4 -80 -9 3 -6 -10 -13
-30 -17 -42 -8 -125 3 -125 17 0 12 -127 12 -135 0 -6 -10 -41 -2 -86 19 -22
10 -31 9 -55 -6 -16 -10 -37 -26 -47 -36 -14 -15 -34 -18 -107 -18 -49 0 -92
5 -95 10 -3 6 -16 10 -28 10 -18 0 -19 -2 -7 -11 12 -8 11 -9 -5 -5 -11 2 -36
8 -55 11 -19 4 -46 15 -60 25 -26 18 -46 24 -140 41 -56 11 -440 6 -493 -5
-41 -9 -273 -12 -338 -4 -115 14 -181 19 -484 39 -428 28 -434 28 -489 39 -61
13 -77 26 -70 55 3 13 1 26 -5 29 -6 4 -8 20 -4 37 7 38 -9 51 -54 43 -38 -7
-35 -19 -39 138 -1 60 1 108 6 108 5 0 12 9 15 20 4 12 14 19 23 18 11 -2 17
3 16 14 -1 10 2 16 6 13 14 -8 22 14 16 40 -5 18 -14 25 -39 27 l-32 3 -3 105
c-1 68 1 100 7 90 5 -8 8 -17 6 -20 -2 -3 14 -4 36 -2 29 3 40 0 45 -12 3 -9
10 -14 15 -11 13 9 49 -27 49 -50 0 -31 12 -42 58 -54 24 -7 45 -18 48 -26 3
-7 13 -12 22 -11 9 2 25 -6 35 -17 9 -11 17 -17 17 -13 0 4 7 0 16 -9 9 -9 23
-14 31 -11 7 3 16 -1 19 -8 4 -10 17 -13 47 -9 23 2 45 7 49 9 5 3 8 2 6 -3
-2 -8 12 -42 65 -153 29 -63 96 -139 147 -169 21 -12 25 -11 37 5 7 10 13 33
13 51 0 29 5 36 30 44 17 6 30 16 30 22 0 6 3 7 6 4 4 -4 1 -13 -5 -21 -7 -8
14 -2 46 14 71 35 73 36 150 26 53 -7 66 -5 86 11 13 10 22 24 19 31 -2 6 0
12 5 12 17 0 139 106 135 118 -2 6 7 16 20 21 13 5 40 26 61 46 32 29 37 38
27 50 -10 12 -10 15 2 15 8 0 19 5 26 12 9 9 8 16 -6 32 -9 11 1 5 23 -14 37
-32 39 -36 21 -45 -10 -5 -23 -21 -28 -35 -8 -22 -4 -20 30 13 36 35 39 41 29
66 -6 16 -32 43 -59 61 -49 34 -64 49 -28 30 50 -27 277 33 250 65 -8 10 -5
17 10 28 17 11 18 16 6 20 -8 3 -17 3 -21 -1 -10 -10 -135 -10 -135 0 0 4 6 8
14 8 22 0 57 34 48 47 -6 10 -14 9 -34 -1 -38 -20 -53 -5 -27 28 l21 27 -39
-6 c-21 -3 -59 -7 -85 -9 -45 -4 -47 -3 -38 15 10 17 7 19 -20 19 -16 0 -30 4
-30 9 0 14 -54 20 -68 8 -10 -8 -16 -7 -22 2 -11 19 -30 -19 -32 -64 -1 -19
-5 -32 -10 -29 -4 3 -8 0 -8 -5 0 -6 5 -11 10 -11 6 0 10 -8 10 -18 0 -11 9
-27 20 -37 11 -10 17 -22 13 -28 -3 -6 -1 -7 5 -3 7 4 20 2 29 -4 16 -10 16
-11 -2 -5 -24 8 -23 7 53 -50 35 -25 62 -49 59 -52 -7 -6 -67 35 -67 47 0 8
-63 41 -85 44 -7 1 -19 7 -26 13 -8 6 -24 14 -36 17 -13 4 -23 12 -23 17 0 6
4 7 10 4 5 -3 10 2 10 12 0 14 2 15 9 5 6 -10 10 -9 14 7 3 12 1 19 -4 15 -5
-3 -9 5 -10 18 0 13 -2 36 -3 51 -1 16 1 30 4 32 5 3 5 47 1 78 -1 4 -14 7
-31 7 -23 0 -30 -4 -30 -20 0 -24 -27 -37 -42 -22 -9 9 -7 17 7 32 10 11 13
20 7 20 -7 0 -12 -4 -12 -10 0 -5 -5 -10 -11 -10 -5 0 -9 10 -7 22 3 21 0 23
-36 20 -33 -3 -38 -1 -32 13 5 14 0 13 -31 -5 -100 -59 -377 -79 -357 -26 5
14 8 14 21 1 19 -19 33 -19 63 2 17 12 25 13 28 5 5 -15 32 -16 32 -1 0 5 5 7
10 4 6 -3 10 3 10 14 0 15 -6 19 -23 17 -13 -1 -28 -5 -34 -9 -6 -4 -13 0 -17
8 -3 8 -1 17 4 20 17 11 11 25 -7 18 -15 -5 -14 -3 2 10 17 14 17 16 4 17 -9
0 -22 7 -29 15 -10 13 -16 11 -44 -10 l-33 -25 -21 21 c-12 11 -22 26 -22 33
0 8 -13 19 -30 25 -21 7 -30 17 -30 31 0 12 -4 18 -10 15 -5 -3 -10 -17 -10
-31 0 -13 -3 -25 -7 -25 -33 -6 -53 -5 -53 1 0 14 -29 4 -55 -18 -25 -22 -62
-31 -50 -12 3 5 -4 19 -15 30 -16 16 -25 19 -35 10 -16 -14 -29 3 -29 40 -1
18 -6 24 -18 22 -10 -2 -18 2 -18 9 0 8 -4 8 -15 -1 -12 -10 -16 -9 -21 4 -4
12 -11 13 -24 6 -19 -10 -50 -4 -50 10 0 12 31 21 44 13 11 -8 96 -10 229 -5
l67 2 2 38 c1 36 1 36 5 5 5 -38 18 -43 28 -12 5 14 2 25 -6 30 -10 6 -8 9 8
9 15 0 23 -7 26 -22 4 -22 4 -22 6 2 2 23 3 24 11 5 8 -19 9 -19 9 2 1 22 -2
22 -116 25 l-118 3 105 9 c83 7 100 11 83 19 -13 6 -23 14 -23 19 0 4 -6 8
-13 8 -7 0 -22 8 -33 18 -46 42 -78 62 -99 62 -13 0 -26 7 -29 16 -10 26 -7
28 16 8 l21 -19 -18 30 -19 30 35 -32 c37 -35 50 -41 45 -20 -1 6 -1 9 1 4 3
-4 8 -5 13 -2 4 2 7 -4 6 -15 0 -11 2 -20 7 -20 20 0 129 -63 139 -80 11 -17
24 -20 75 -20 38 0 63 4 63 11 0 6 -9 8 -20 4 -28 -9 -25 4 3 14 16 6 26 4 38
-10 18 -20 29 -24 29 -10 0 10 -46 42 -64 45 -16 2 -76 39 -76 47 0 13 -38 17
-51 5 -9 -8 -10 -6 -6 12 3 12 1 20 -4 17 -4 -3 -11 6 -15 21 -8 32 17 54 28
25 3 -10 13 -21 22 -24 9 -4 13 -13 10 -22 -4 -9 -3 -15 2 -13 5 1 39 -12 75
-30 80 -39 87 -39 84 -7 -4 31 -31 58 -63 63 -28 3 -72 30 -72 43 0 12 27 11
35 -1 3 -5 33 -10 65 -10 33 0 80 -7 106 -16 36 -12 49 -13 54 -4 4 7 17 10
31 6 l24 -6 -22 11 c-13 7 -23 16 -23 21 0 4 -9 8 -21 8 -14 0 -19 -5 -16 -13
4 -10 -2 -13 -21 -9 -23 5 -24 6 -7 18 17 12 16 14 -10 24 -16 6 -48 14 -72
17 -24 3 -43 9 -43 13 0 10 137 -16 219 -41 35 -10 73 -19 85 -19 36 0 97 21
91 31 -4 5 1 9 9 9 9 0 16 7 16 15 0 8 7 15 15 15 22 0 18 15 -7 28 l-23 11
23 7 c24 7 28 24 10 42 -6 6 -9 15 -5 18 5 6 77 -62 77 -74 0 -2 -9 -2 -19 1
-17 4 -19 0 -15 -40 3 -44 3 -45 -21 -39 -18 5 -24 3 -23 -6 3 -14 65 -29 86
-20 8 2 13 18 12 36 -3 48 -1 58 11 50 8 -4 7 -9 -2 -16 -10 -6 -7 -7 9 -3 13
4 29 1 37 -5 12 -10 15 -9 15 3 0 9 -15 20 -35 27 -33 11 -35 14 -35 56 0 24
5 44 10 44 6 0 10 -4 10 -9 0 -4 27 -20 59 -35 52 -23 63 -25 88 -14 15 7 33
20 40 28 7 8 13 11 13 7 0 -5 15 2 33 15 24 17 47 23 92 25 42 1 60 5 60 15 0
7 8 12 18 12 9 -1 14 2 11 7 -3 5 -13 9 -22 10 -9 0 -12 3 -7 5 6 2 9 22 7 44
-3 33 -1 39 11 34 8 -3 18 -1 22 5 9 16 25 13 25 -4 0 -15 23 -31 55 -36 11
-2 25 -10 30 -16 13 -17 112 -20 128 -4 9 10 7 16 -10 31 -23 18 -92 22 -140
6 -17 -5 -24 -1 -36 24 -9 18 -11 30 -5 30 6 0 6 6 -2 15 -7 8 -21 15 -31 15
-10 0 -21 5 -24 10 -3 6 -17 10 -31 10 -13 0 -24 5 -24 10 0 6 9 10 20 10 13
0 18 5 14 15 -4 8 -13 15 -21 15 -12 0 -13 3 -4 13 8 11 6 16 -12 24 -22 10
-23 9 -19 -18 2 -16 8 -32 13 -34 4 -3 6 -12 3 -20 -4 -11 -11 -12 -23 -5 -10
5 -27 7 -38 4 -12 -3 -24 -1 -27 5 -11 17 -26 13 -20 -4 4 -8 1 -15 -6 -15 -6
0 -8 5 -4 13 4 6 -3 1 -17 -12 -14 -12 -40 -29 -59 -37 -34 -13 -34 -13 -12 4
37 27 154 124 172 142 33 33 107 61 162 61 71 0 113 14 126 44 11 24 42 35 42
16 0 -12 76 -4 102 10 10 6 18 6 18 1 0 -6 11 -12 25 -15 21 -3 29 1 40 24 21
41 19 52 -20 93 l-35 37 -75 -12 c-41 -6 -83 -9 -93 -7 -14 4 -24 -3 -37 -24
-16 -28 -18 -28 -31 -11 -7 10 -14 25 -14 33 -1 15 -12 3 -69 -71 -13 -17 -50
-53 -82 -79 -32 -27 -54 -52 -49 -55 18 -11 10 -25 -15 -25 -15 0 -44 -18 -75
-45 -28 -25 -47 -45 -43 -45 4 -1 -3 -7 -17 -15 -55 -31 -46 -21 102 118 19
18 17 37 -5 37 -7 0 -28 -13 -47 -30 -19 -16 -36 -27 -39 -24 -3 3 1 9 9 14 8
6 11 10 5 10 -5 0 4 12 20 26 17 15 24 23 17 19 -7 -4 -24 -4 -38 -1 -19 5
-24 11 -19 26 4 12 1 22 -7 25 -7 3 -57 49 -112 101 -74 73 -100 93 -107 83
-6 -11 -11 -11 -20 -2 -21 21 -20 45 1 38 24 -8 35 11 13 23 -11 6 -26 7 -42
1 -13 -6 -37 -11 -53 -13 -24 -3 -26 -1 -16 11 9 12 7 13 -13 10 -13 -2 -41
-11 -63 -20 -21 -9 -44 -17 -51 -17 -22 0 -25 -13 -5 -27 11 -8 25 -11 32 -7
7 5 8 3 3 -6 -6 -9 1 -11 29 -8 40 4 50 -7 12 -14 -15 -3 -48 7 -82 24 -32 15
-64 28 -71 28 -23 0 -91 -70 -98 -100 -4 -17 -11 -33 -17 -36 -8 -5 -9 13 -4
60 4 43 3 74 -5 87 -8 15 -8 19 0 15 6 -4 11 -2 11 3 0 6 -7 11 -15 11 -8 0
-15 5 -15 11 0 15 39 7 125 -24 64 -24 71 -24 82 -10 10 13 10 18 -3 27 -8 6
-20 23 -27 36 -16 33 -57 40 -57 10 0 -12 -5 -18 -10 -15 -6 3 -9 32 -9 64 2
93 -8 99 -66 42 -60 -57 -107 -133 -150 -242 -43 -110 -53 -119 -119 -119 -43
0 -60 -5 -84 -25 -17 -14 -38 -25 -49 -25 -10 0 -24 -5 -30 -11 -6 -6 -19 -9
-29 -7 -21 4 -36 -9 -79 -67 -17 -22 -34 -43 -40 -47 -7 -5 -6 -11 1 -15 13
-9 0 -53 -15 -53 -6 0 -21 16 -34 35 -13 19 -26 32 -30 29 -3 -3 -16 1 -29 10
-19 13 -23 26 -24 73 -1 59 11 103 29 103 5 0 7 -7 3 -15 -6 -17 9 -21 19 -5
4 6 11 8 16 5 5 -4 9 0 9 7 0 10 2 10 9 -1 5 -8 7 4 4 33 -5 42 -4 46 12 40
17 -7 17 -6 0 24 -16 26 -16 33 -5 47 11 13 10 14 -5 9 -12 -5 -16 -4 -12 3 4
7 -12 19 -38 30 -25 10 -45 21 -45 26 0 11 14 8 30 -5 8 -7 6 -2 -5 10 -20 24
-20 24 0 38 11 8 31 13 45 12 22 -3 25 1 25 32 0 19 4 40 8 47 4 7 -2 20 -15
32 -12 12 -16 21 -9 21 6 0 21 8 31 18 11 10 50 24 87 31 101 18 167 34 178
42 16 11 174 37 265 44 47 4 105 11 130 16 25 5 74 13 110 18 36 5 101 17 145
25 44 9 100 16 124 16 46 0 122 12 226 35 51 11 -206 13 -1637 14 l-1698 1 0
-1790z m1137 1599 c28 -11 170 -25 363 -36 l105 -7 -100 -12 c-73 -9 -141 -10
-251 -4 -94 6 -173 6 -210 0 -64 -11 -99 3 -38 15 21 3 51 18 67 31 33 28 28
27 64 13z m-291 -27 c2 -10 -9 -24 -26 -34 -25 -14 -30 -15 -30 -3 0 8 6 15
13 16 6 0 4 4 -6 8 -29 11 -25 25 8 32 35 6 38 5 41 -19z m1019 18 c-3 -5 -12
-7 -20 -3 -8 3 -15 0 -15 -6 0 -6 -7 -8 -17 -4 -9 4 -14 2 -11 -3 3 -5 -33
-10 -86 -11 -92 -3 -103 10 -20 23 22 3 41 8 43 10 9 9 132 4 126 -6z m35 6
c0 -3 -4 -8 -10 -11 -5 -3 -10 -1 -10 4 0 6 5 11 10 11 6 0 10 -2 10 -4z
m-1873 -78 c-3 -8 -6 -5 -6 6 -1 11 2 17 5 13 3 -3 4 -12 1 -19z m810 -3 c-7
-13 -14 -20 -15 -14 -2 5 2 16 8 24 18 21 20 18 7 -10z m510 -10 c26 0 98 4
158 8 61 4 124 4 140 -1 17 -5 49 -4 75 1 31 7 45 6 48 -2 2 -6 12 -11 22 -11
10 0 25 -6 32 -13 7 -7 22 -19 33 -26 18 -11 18 -12 -7 -6 -30 6 -35 -4 -18
-36 8 -14 7 -19 -2 -19 -9 0 -9 -3 2 -10 8 -5 32 -10 52 -10 65 0 64 -49 -2
-69 -23 -7 -38 -16 -35 -21 3 -5 -11 -20 -32 -34 -21 -15 -33 -27 -28 -27 6
-1 15 -2 20 -4 6 -1 16 -3 23 -3 9 -2 8 -9 -5 -29 -17 -26 -17 -26 5 -21 12 4
22 3 22 -1 0 -16 -32 -71 -41 -71 -5 0 -9 -7 -9 -15 0 -9 9 -15 25 -15 29 0
30 -3 13 -30 -11 -17 -10 -22 2 -30 13 -8 12 -10 -3 -10 -9 0 -25 -9 -34 -19
-9 -11 -21 -17 -26 -14 -5 3 -4 -4 2 -16 7 -11 17 -21 24 -22 9 0 9 -2 0 -6
-22 -8 -14 -20 30 -42 23 -12 35 -21 26 -21 -16 0 -34 -26 -31 -42 1 -5 -2 -8
-8 -8 -6 0 -5 -10 2 -25 9 -19 9 -28 0 -37 -22 -22 -12 -31 31 -25 31 5 36 4
20 -3 -21 -9 -33 -40 -15 -40 4 0 6 -19 4 -42 -4 -42 -5 -42 -22 -20 -18 21
-18 21 -40 2 -21 -18 -42 -29 -27 -13 4 3 1 13 -6 21 -7 10 -8 13 -1 9 7 -4
17 0 23 7 8 10 9 16 1 21 -6 3 -8 10 -5 15 3 5 1 11 -4 15 -6 3 -7 13 -4 22 5
13 2 15 -11 10 -13 -5 -17 -3 -13 7 4 11 1 13 -10 9 -11 -4 -14 -2 -9 5 4 7 3
12 -3 12 -6 0 -7 8 -4 17 5 13 2 15 -11 10 -10 -4 -15 -3 -11 3 3 6 2 10 -3
10 -13 0 -22 39 -11 46 5 3 9 11 9 17 0 7 -4 6 -10 -3 -8 -13 -10 -12 -10 3 0
9 5 17 10 17 21 0 -68 68 -128 98 -42 21 -78 32 -107 32 -48 0 -123 29 -172
66 -17 13 -35 24 -40 24 -4 0 -20 15 -34 33 -19 24 -40 36 -80 46 -30 7 -59
18 -66 23 -7 5 -18 6 -24 2 -7 -4 -9 -3 -6 3 9 14 -37 55 -58 51 -10 -2 -20 3
-22 10 -3 7 1 10 11 6 20 -8 20 5 0 34 -14 21 -14 22 5 22 26 0 26 8 0 36 -15
16 -17 24 -8 29 7 5 10 4 6 -2 -4 -6 0 -13 8 -17 10 -4 15 1 15 14 0 21 28 25
148 20 28 -1 52 3 52 8 0 5 9 12 20 15 11 3 20 10 20 17 0 6 -4 9 -9 6 -4 -3
-54 -7 -110 -10 -86 -3 -100 -2 -90 10 6 8 19 14 28 14 10 0 51 9 92 20 41 11
89 20 107 20 19 0 32 5 32 13 0 8 3 7 10 -3 6 -10 26 -15 57 -15z m3933 21 c0
-3 -4 -8 -10 -11 -5 -3 -10 -1 -10 4 0 6 5 11 10 11 6 0 10 -2 10 -4z m-5219
-63 c13 -16 12 -17 -3 -4 -10 7 -18 15 -18 17 0 8 8 3 21 -13z m507 -5 c17
-17 15 -26 -8 -33 -46 -14 2 -55 65 -55 12 0 24 -3 28 -6 8 -8 -3 -35 -13 -29
-4 2 -27 7 -50 10 -40 5 -87 32 -75 43 7 8 -15 42 -28 42 -21 0 -40 17 -33 29
10 15 99 14 114 -1z m287 -33 c0 -11 -45 -17 -65 -9 -11 5 -9 8 10 14 30 8 55
6 55 -5z m-21 -77 c-3 -5 -15 -8 -25 -5 -10 3 -17 0 -16 -5 1 -6 -3 -12 -10
-15 -8 -3 -12 23 -4 33 1 1 15 1 31 2 18 0 28 -3 24 -10z m2206 -42 c0 -3 -4
-8 -10 -11 -5 -3 -10 -1 -10 4 0 6 5 11 10 11 6 0 10 -2 10 -4z m-1010 -58 c0
-16 -3 -19 -11 -11 -6 6 -8 16 -5 22 11 17 16 13 16 -11z m-35 -48 c3 -5 1
-10 -4 -10 -6 0 -11 5 -11 10 0 6 2 10 4 10 3 0 8 -4 11 -10z m-67 -85 c-2 -2
-14 -1 -27 2 -23 6 -23 7 -5 20 15 11 19 11 27 -3 5 -8 7 -17 5 -19z m1362 10
c0 -2 -13 -11 -30 -20 -16 -9 -30 -11 -30 -6 0 7 22 19 58 30 1 1 2 -1 2 -4z
m-2010 -89 c0 -3 -11 4 -25 16 -14 12 -25 25 -25 29 0 5 11 -2 25 -15 14 -13
25 -26 25 -30z m653 20 c-5 -10 -13 -12 -22 -7 -12 8 -12 11 0 24 17 19 35 5
22 -17z m1377 -1 c-6 -8 -30 -25 -53 -39 -23 -13 -54 -38 -70 -55 -31 -35 -46
-40 -44 -12 0 10 6 17 13 14 7 -2 34 18 61 45 26 27 53 47 60 45 6 -2 14 1 18
6 3 6 11 11 17 11 7 0 6 -5 -2 -15z m-125 -55 c-10 -11 -21 -17 -24 -14 -3 3
3 12 13 20 28 20 32 17 11 -6z m-1260 -10 c3 -6 -1 -7 -9 -4 -18 7 -21 14 -7
14 6 0 13 -4 16 -10z m1366 -13 c-6 -8 -8 -16 -5 -19 3 -3 1 -9 -4 -12 -6 -3
-9 0 -8 6 2 16 15 38 23 38 3 0 0 -6 -6 -13z m-51 -11 c0 -8 5 -16 12 -18 8
-3 4 -15 -10 -36 -65 -95 -63 -92 -45 -85 11 4 14 3 9 -5 -9 -15 45 7 56 23 5
6 8 6 8 -2 0 -7 -15 -20 -32 -29 -18 -9 -36 -21 -39 -26 -3 -5 -10 -8 -15 -6
-4 1 -18 -12 -31 -30 -17 -27 -20 -36 -10 -47 7 -7 15 -11 20 -8 4 2 7 -1 7
-6 0 -6 -4 -11 -10 -11 -5 0 -7 -7 -4 -15 7 -18 -3 -20 -19 -2 -16 16 -20 87
-8 119 7 19 7 28 -2 31 -12 5 21 36 34 33 10 -2 49 36 49 47 0 6 8 19 17 29
10 12 13 22 8 26 -14 10 -17 32 -5 32 6 0 10 -6 10 -14z m-1596 -69 c-3 -9
-10 -14 -15 -11 -5 3 -7 10 -4 15 4 5 0 9 -7 9 -9 0 -9 3 2 10 19 12 33 -1 24
-23z m1506 -8 c-7 -11 -14 -19 -16 -16 -7 7 7 37 17 37 6 0 5 -9 -1 -21z
m-1043 -15 c-3 -3 -12 -4 -19 -1 -8 3 -5 6 6 6 11 1 17 -2 13 -5z m1148 -14
c-3 -5 -16 -15 -28 -21 -19 -9 -19 -8 3 10 28 23 34 26 25 11z m-2255 -10 c0
-5 -2 -10 -4 -10 -3 0 -8 5 -11 10 -3 6 -1 10 4 10 6 0 11 -4 11 -10z m0 -35
c7 -8 16 -13 20 -10 5 3 11 1 15 -5 3 -5 -1 -10 -9 -10 -8 0 -18 5 -21 11 -4
6 -17 14 -29 19 -15 6 -16 9 -5 9 9 1 22 -6 29 -14z m174 -82 c8 -20 3 -16
-35 24 l-34 37 32 -25 c17 -13 34 -30 37 -36z m2336 27 c-8 -5 -22 -10 -30
-10 -13 0 -13 1 0 10 8 5 22 10 30 10 13 0 13 -1 0 -10z m-2440 -62 c0 -4 -4
-8 -9 -8 -6 0 -12 4 -15 8 -3 5 1 9 9 9 8 0 15 -4 15 -9z m145 -8 c10 -11 16
-20 13 -20 -3 0 -13 9 -23 20 -10 11 -16 20 -13 20 3 0 13 -9 23 -20z m771
-17 c-8 -40 -16 -40 -16 1 0 22 4 35 10 31 6 -3 8 -18 6 -32z m-56 -43 c0 -11
-4 -20 -10 -20 -5 0 -10 2 -10 4 0 2 -3 11 -6 20 -4 11 -1 16 10 16 9 0 16 -8
16 -20z m95 5 c6 -1 22 2 38 6 21 6 27 4 27 -8 0 -12 3 -13 14 -4 10 8 16 9
21 1 3 -5 16 -10 27 -10 24 0 47 -27 47 -55 0 -18 -1 -18 -13 4 -12 22 -13 22
-20 5 -7 -18 -8 -18 -20 -1 -18 23 -26 22 -26 -5 -1 -21 -2 -22 -14 -5 -17 22
-26 22 -26 -3 0 -11 -4 -20 -10 -20 -5 0 -10 10 -10 23 0 16 -3 18 -9 9 -7
-11 -9 -11 -14 2 -4 9 -11 16 -17 16 -6 0 -8 -4 -5 -10 3 -5 4 -10 1 -10 -2 0
-11 14 -20 30 -8 17 -10 30 -5 30 6 0 7 5 3 12 -5 7 -3 8 7 2 8 -5 19 -9 24
-9z m242 -77 c-3 -7 -5 -2 -5 12 0 14 2 19 5 13 2 -7 2 -19 0 -25z m33 8 c0
-3 -4 -8 -10 -11 -5 -3 -10 -1 -10 4 0 6 5 11 10 11 6 0 10 -2 10 -4z m167
-28 c-3 -8 -6 -5 -6 6 -1 11 2 17 5 13 3 -3 4 -12 1 -19z m398 -48 c3 -5 1
-10 -4 -10 -6 0 -11 5 -11 10 0 6 2 10 4 10 3 0 8 -4 11 -10z m-355 -31 c0 -6
-4 -7 -10 -4 -5 3 -10 11 -10 16 0 6 5 7 10 4 6 -3 10 -11 10 -16z m-319 -16
c13 -16 12 -17 -3 -4 -10 7 -18 15 -18 17 0 8 8 3 21 -13z m1376 -15 c-3 -7
-5 -2 -5 12 0 14 2 19 5 13 2 -7 2 -19 0 -25z m333 2 c0 -5 -5 -10 -11 -10 -5
0 -7 5 -4 10 3 6 8 10 11 10 2 0 4 -4 4 -10z m-2720 -10 c0 -5 -7 -7 -15 -4
-8 4 -15 8 -15 10 0 2 7 4 15 4 8 0 15 -4 15 -10z m2580 -20 c0 -5 -5 -10 -11
-10 -5 0 -7 5 -4 10 3 6 8 10 11 10 2 0 4 -4 4 -10z m-2516 -33 c37 -25 89
-77 82 -84 -3 -3 -17 -1 -30 7 -14 7 -31 10 -40 7 -8 -3 -16 -3 -18 1 -2 4
-19 15 -38 25 -19 10 -27 16 -18 13 10 -3 20 -1 23 4 4 6 -5 10 -19 10 -14 0
-28 5 -32 12 -5 8 -2 9 9 5 10 -3 17 -2 17 3 0 6 -4 10 -10 10 -5 0 -10 4 -10
9 0 12 54 -3 84 -22z m1360 11 c17 -15 17 -18 3 -18 -21 0 -67 21 -67 31 0 14
45 5 64 -13z m2826 7 c17 -9 30 -20 30 -26 0 -6 -6 -7 -12 -3 -26 16 -111 22
-143 10 -16 -6 -15 -4 5 13 30 24 80 27 120 6z m-1496 -94 c3 -5 -12 -11 -35
-13 -35 -3 -38 -2 -23 9 21 15 50 17 58 4z m-2703 -18 c16 -10 29 -22 29 -27
0 -5 -8 -2 -18 7 -10 10 -26 17 -35 17 -9 0 -19 5 -22 10 -10 15 14 12 46 -7z
m809 -9 c0 -8 6 -14 13 -15 10 0 10 -2 0 -6 -7 -2 -13 -21 -14 -41 l-1 -37
-11 33 c-8 27 -7 36 4 43 10 6 10 9 2 9 -7 0 -13 9 -13 21 0 11 5 17 10 14 6
-3 10 -13 10 -21z m-653 -9 c22 -19 24 -24 11 -25 -10 0 -18 5 -18 10 0 6 -3
9 -7 8 -15 -3 -43 14 -37 23 9 14 21 11 51 -16z m3802 0 c-40 -28 -99 -62 -84
-47 20 20 98 72 108 72 5 0 -5 -11 -24 -25z m-3879 -5 c0 -5 -5 -10 -11 -10
-5 0 -7 5 -4 10 3 6 8 10 11 10 2 0 4 -4 4 -10z m690 -6 c0 -2 -9 -4 -20 -4
-11 0 -20 4 -20 9 0 5 9 7 20 4 11 -3 20 -7 20 -9z m207 0 c-3 -3 -12 -4 -19
-1 -8 3 -5 6 6 6 11 1 17 -2 13 -5z m-753 -11 c4 -4 18 -9 33 -11 14 -1 42
-15 61 -30 19 -15 42 -27 51 -27 9 0 17 -8 19 -17 4 -23 -17 -23 -48 -1 -38
27 -82 52 -112 64 -16 6 -28 15 -28 20 0 11 14 12 24 2z m349 -10 c-7 -2 -19
-2 -25 0 -7 3 -2 5 12 5 14 0 19 -2 13 -5z m196 -29 c25 -29 21 -46 -4 -20 -9
9 -20 16 -24 16 -4 0 -8 7 -8 15 0 22 10 19 36 -11z m3035 17 c3 -5 -17 -16
-44 -25 -27 -9 -66 -27 -86 -41 -36 -24 -38 -25 -57 -8 -19 18 -18 18 26 23
25 3 54 13 64 22 33 30 87 46 97 29z m-3104 -27 c0 -8 -5 -12 -10 -9 -6 4 -8
11 -5 16 9 14 15 11 15 -7z m-700 -8 c0 -3 -4 -8 -10 -11 -5 -3 -10 -1 -10 4
0 6 5 11 10 11 6 0 10 -2 10 -4z m1373 -226 c22 0 28 -3 20 -11 -7 -7 -180
-12 -554 -15 -318 -3 -536 -1 -524 5 11 4 137 10 280 11 143 1 364 6 490 9
127 4 236 6 243 4 8 -2 28 -3 45 -3z m2567 -20 c86 -5 -28 -8 -361 -9 -488 -1
-791 7 -734 20 37 8 923 0 1095 -11z m-2836 -75 c39 -30 66 -35 45 -8 -11 13
-8 13 13 -2 30 -22 34 -30 16 -41 -7 -5 -8 -3 -3 6 6 10 4 12 -11 6 -10 -4
-44 -10 -74 -12 -30 -3 -71 -7 -90 -9 -22 -3 -30 -1 -21 4 7 5 11 15 9 22 -4
13 54 58 75 59 5 0 23 -11 41 -25z m796 -19 c0 -3 -4 -8 -10 -11 -5 -3 -10 -1
-10 4 0 6 5 11 10 11 6 0 10 -2 10 -4z m55 -65 c3 -5 1 -12 -5 -16 -5 -3 -10
1 -10 9 0 18 6 21 15 7z m-1560 -11 c3 -5 -16 -19 -42 -31 -26 -12 -55 -28
-63 -35 -20 -17 -70 -29 -70 -17 0 5 12 16 28 24 15 8 29 16 32 19 7 7 93 49
102 49 4 1 10 -3 13 -9z m3297 -17 c8 -10 3 -13 -25 -13 -19 0 -40 7 -47 15
-12 14 -8 16 24 13 20 -1 42 -8 48 -15z m-777 -33 c7 -22 6 -23 -9 -11 -9 7
-16 23 -16 34 0 26 15 12 25 -23z m844 -5 c5 2 17 -2 27 -10 18 -14 17 -14
-11 -14 -16 -1 -41 8 -55 19 l-25 20 28 -10 c16 -6 32 -8 36 -5z m-3595 -36
c-13 -30 -192 -149 -225 -149 -24 0 -3 22 56 56 36 21 65 42 65 46 0 4 8 8 18
8 9 0 33 14 52 29 37 31 44 33 34 10z m2066 11 c0 -5 -4 -10 -9 -10 -6 0 -13
5 -16 10 -3 6 1 10 9 10 9 0 16 -4 16 -10z m-139 -25 c16 -9 27 -20 24 -25 -9
-15 -25 -12 -25 3 0 8 -10 19 -22 25 -13 6 -19 11 -15 11 4 1 21 -6 38 -14z
m1904 -8 c7 -6 0 -7 -20 -3 -16 4 -34 12 -40 17 -7 7 0 8 20 3 17 -3 35 -11
40 -17z m-3976 -43 c-6 -8 -21 -14 -33 -14 -21 1 -21 1 3 20 25 22 49 17 30
-6z m2066 -12 c-3 -3 -11 0 -18 7 -9 10 -8 11 6 5 10 -3 15 -9 12 -12z m2135
-1 c0 -11 -41 -22 -97 -26 -29 -3 -46 1 -55 12 -12 14 -11 15 9 5 12 -7 24 -8
27 -4 3 5 26 10 52 11 26 0 50 3 52 6 8 7 12 6 12 -4z m-2315 -19 c13 -9 45
-79 45 -97 0 -8 5 -15 10 -15 6 0 10 -5 10 -10 0 -6 -8 -5 -20 2 -11 7 -20 20
-20 29 0 20 -30 81 -44 91 -7 5 -7 8 -1 8 6 0 15 -4 20 -8z m-1088 -18 c-3 -3
-12 -4 -19 -1 -8 3 -5 6 6 6 11 1 17 -2 13 -5z m-181 -20 c-4 -9 1 -9 21 1 45
23 53 11 53 -79 0 -46 -3 -85 -6 -88 -3 -3 -21 -2 -40 4 -59 16 -73 5 -70 -55
1 -29 8 -62 14 -74 10 -17 9 -25 -3 -37 -8 -8 -15 -20 -15 -27 0 -23 33 -49
63 -49 17 0 27 3 24 7 -9 9 13 34 24 27 12 -7 11 -85 0 -103 -6 -10 -19 -12
-45 -7 -23 4 -36 3 -36 -4 0 -5 -7 -10 -15 -10 -14 0 -20 -14 -15 -35 7 -27 6
-104 -1 -99 -5 3 -9 -1 -9 -9 0 -26 -122 -48 -280 -52 -80 -2 -193 -12 -252
-21 -91 -15 -117 -16 -165 -6 -32 7 -59 16 -61 22 -2 5 -10 10 -18 10 -8 0
-14 5 -14 10 0 6 -11 10 -24 10 -13 0 -27 7 -30 16 -9 23 -7 36 3 29 15 -9 28
24 37 90 11 80 7 123 -12 142 -24 24 -36 -1 -30 -60 4 -35 2 -47 -7 -44 -14 4
-37 -16 -37 -33 0 -6 -5 -8 -10 -5 -6 3 -10 31 -10 61 0 61 14 81 79 109 30
14 35 13 57 -4 13 -10 20 -21 17 -25 -3 -3 1 -6 10 -6 10 0 16 -3 15 -7 -3
-15 14 -63 23 -63 8 0 13 24 12 58 -1 6 6 12 14 12 24 0 51 42 47 72 -1 16 2
28 7 28 6 0 8 4 5 9 -10 16 5 41 25 41 10 0 44 11 75 25 31 14 68 25 81 25 29
0 115 26 157 48 16 8 44 16 62 18 25 2 33 -2 38 -19 3 -11 2 -25 -2 -31 -4 -6
-12 -26 -18 -43 -10 -27 -9 -33 3 -33 11 0 11 -4 3 -20 -8 -14 -8 -20 0 -20
15 0 7 -25 -8 -26 -24 -3 -26 -4 -15 -15 6 -6 9 -17 6 -24 -3 -8 5 -15 19 -17
23 -3 26 -11 44 -120 9 -53 24 -47 25 10 1 69 8 105 26 124 10 11 13 26 9 42
-4 15 -1 26 7 29 7 4 6 6 -5 6 -21 1 -17 27 8 46 18 14 18 14 -8 15 -21 0 -25
4 -21 20 3 11 9 17 14 14 5 -3 9 -1 9 5 0 5 -6 12 -12 15 -7 3 -3 3 9 1 22 -6
41 9 25 19 -12 7 -3 59 11 68 6 3 12 14 13 23 3 19 35 46 46 39 4 -3 11 4 17
14 11 21 45 26 37 6z m1391 -49 c0 -8 -4 -15 -9 -15 -4 0 -8 9 -8 20 0 11 -5
20 -11 20 -5 0 -7 -6 -3 -12 5 -9 2 -9 -9 1 -18 15 -23 26 -7 16 6 -3 10 -1
10 6 0 8 6 6 18 -4 10 -10 19 -24 19 -32z m-7 -88 c0 -5 -7 -4 -15 3 -8 7 -15
20 -15 29 1 13 3 13 15 -3 8 -11 15 -24 15 -29z m-1533 11 c-3 -8 -6 -5 -6 6
-1 11 2 17 5 13 3 -3 4 -12 1 -19z m963 -121 c0 -5 19 -26 43 -48 28 -26 52
-39 72 -39 34 -1 36 0 -79 -44 -68 -25 -97 -26 -64 -2 17 13 19 56 4 141 -7
37 -6 39 8 21 9 -11 16 -24 16 -29z m233 -64 c-7 -2 -19 -2 -25 0 -7 3 -2 5
12 5 14 0 19 -2 13 -5z m-2093 -53 c0 -5 9 -10 19 -10 26 0 31 -19 30 -108 -1
-75 -15 -214 -18 -179 0 9 -8 17 -16 17 -18 0 -20 -16 -2 -23 6 -3 0 -4 -16
-3 -15 2 -27 6 -27 9 0 4 0 12 0 18 0 5 5 7 10 4 6 -3 10 -1 10 4 0 6 -4 11
-9 11 -19 0 -8 48 14 60 13 7 26 21 28 32 7 24 -29 68 -55 68 -20 0 -24 15 -7
25 7 5 5 13 -6 25 -16 18 -16 18 4 13 22 -6 30 12 9 20 -10 4 -9 8 2 16 19 13
30 14 30 1z m2060 -19 c0 -10 -24 -21 -43 -21 -7 0 -3 7 7 15 22 17 36 19 36
6z m2343 -88 c5 -27 -9 -80 -18 -71 -5 5 -9 60 -6 86 2 22 19 12 24 -15z m85
15 c7 -7 12 -38 12 -69 l0 -57 -27 7 c-21 6 -29 15 -34 42 -15 69 13 113 49
77z m64 -56 c9 -22 12 -24 15 -9 6 23 18 22 45 -5 13 -13 29 -23 36 -23 8 0
19 -10 25 -22 7 -12 16 -21 22 -20 5 1 15 -16 21 -38 11 -35 13 -37 13 -12 1
44 21 21 21 -24 0 -50 18 -51 22 -1 l4 37 13 -32 c8 -21 17 -30 27 -26 7 3 17
-2 20 -11 3 -9 13 -16 21 -16 8 0 13 -6 11 -12 -5 -14 -67 -23 -213 -33 -56
-4 -85 -3 -77 3 9 6 11 22 7 53 -4 24 -7 52 -8 62 -1 9 -6 17 -12 17 -6 0 -21
14 -34 30 -18 26 -21 38 -15 75 7 48 18 50 36 7z m-217 -72 c-3 -5 -12 -10
-18 -10 -7 0 -6 4 3 10 19 12 23 12 15 0z m-4380 -100 c3 -6 -1 -7 -9 -4 -18
7 -21 14 -7 14 6 0 13 -4 16 -10z m3938 -147 c-7 -2 -19 -2 -25 0 -7 3 -2 5
12 5 14 0 19 -2 13 -5z m-355 -320 c-15 -2 -42 -2 -60 0 -18 2 -6 4 27 4 33 0
48 -2 33 -4z"/>
<path d="M3157 2633 c-4 -3 -7 -11 -7 -17 0 -6 5 -5 12 2 6 6 9 14 7 17 -3 3
-9 2 -12 -2z"/>
<path d="M5320 3400 c0 -5 4 -10 9 -10 6 0 13 5 16 10 3 6 -1 10 -9 10 -9 0
-16 -4 -16 -10z"/>
<path d="M3199 3266 c-53 -27 -115 -82 -105 -92 31 -26 126 -51 126 -32 0 5 4
7 8 4 5 -3 16 4 25 15 20 22 14 61 -13 96 -15 19 -20 20 -41 9z"/>
<path d="M5126 3265 c-3 -8 -1 -15 4 -15 6 0 10 7 10 15 0 8 -2 15 -4 15 -2 0
-6 -7 -10 -15z"/>
<path d="M3269 3129 c-8 -5 -9 -9 -4 -10 6 0 18 -2 28 -4 9 -2 17 0 17 5 0 13
-26 19 -41 9z"/>
<path d="M3338 3123 c6 -2 9 -10 6 -15 -4 -7 -2 -8 5 -4 13 9 5 26 -12 25 -9
0 -8 -2 1 -6z"/>
<path d="M3198 3108 c5 -5 16 -8 23 -6 8 3 3 7 -10 11 -17 4 -21 3 -13 -5z"/>
<path d="M2210 2956 c0 -2 8 -10 18 -17 15 -13 16 -12 3 4 -13 16 -21 21 -21
13z"/>
<path d="M2245 2910 c-3 -5 -1 -10 4 -10 6 0 11 5 11 10 0 6 -2 10 -4 10 -3 0
-8 -4 -11 -10z"/>
<path d="M3390 2885 c7 -9 15 -13 17 -11 7 7 -7 26 -19 26 -6 0 -6 -6 2 -15z"/>
<path d="M3420 2881 c0 -5 7 -15 17 -22 15 -13 15 -12 4 9 -12 23 -21 28 -21
13z"/>
<path d="M3583 2809 c-100 -19 -113 -61 -20 -62 46 0 91 11 95 23 2 5 8 10 13
10 6 0 7 -4 4 -10 -3 -5 -1 -10 4 -10 15 0 14 25 -1 38 -21 16 -51 20 -95 11z"/>
<path d="M3590 2687 c0 -19 10 -27 26 -20 21 8 17 33 -6 33 -11 0 -20 -6 -20
-13z"/>
<path d="M3569 2536 c9 -11 9 -15 -1 -18 -9 -3 -9 -6 0 -12 7 -4 12 -2 12 4 0
6 4 8 10 5 5 -3 7 0 4 9 -3 8 -13 17 -21 20 -13 5 -14 4 -4 -8z"/>
<path d="M3470 2430 c-13 -8 -13 -10 2 -10 9 0 20 5 23 10 8 13 -5 13 -25 0z"/>
<path d="M2796 2184 c-11 -8 -16 -14 -10 -14 13 0 39 18 34 24 -3 2 -14 -2
-24 -10z"/>
<path d="M2746 2182 c-3 -5 1 -9 9 -9 8 0 12 4 9 9 -3 4 -7 8 -9 8 -2 0 -6 -4
-9 -8z"/>
<path d="M2706 2165 c-3 -8 -1 -15 4 -15 6 0 10 7 10 15 0 8 -2 15 -4 15 -2 0
-6 -7 -10 -15z"/>
<path d="M2842 2135 c-11 -12 -10 -15 3 -15 8 0 15 7 15 15 0 18 -2 18 -18 0z"/>
<path d="M2668 2093 c7 -3 16 -2 19 1 4 3 -2 6 -13 5 -11 0 -14 -3 -6 -6z"/>
<path d="M3608 2053 c7 -3 16 -2 19 1 4 3 -2 6 -13 5 -11 0 -14 -3 -6 -6z"/>
<path d="M2475 2013 c2 -10 4 -21 4 -25 2 -17 19 -7 26 15 6 20 8 20 12 3 4
-15 7 -16 14 -5 8 12 11 12 19 -1 8 -12 10 -11 10 8 0 19 -5 22 -44 22 -37 0
-44 -3 -41 -17z"/>
<path d="M2618 2023 c7 -3 16 -2 19 1 4 3 -2 6 -13 5 -11 0 -14 -3 -6 -6z"/>
<path d="M2972 2018 c7 -20 48 -23 48 -4 0 11 -9 16 -26 16 -16 0 -24 -5 -22
-12z"/>
<path d="M3100 2020 c0 -5 5 -10 11 -10 5 0 7 5 4 10 -3 6 -8 10 -11 10 -2 0
-4 -4 -4 -10z"/>
<path d="M3137 2010 c3 -11 7 -20 8 -20 1 0 5 9 8 20 3 12 0 20 -8 20 -8 0
-11 -8 -8 -20z"/>
<path d="M3443 2023 c-14 -3 -23 -11 -22 -21 0 -11 3 -12 6 -4 2 6 18 12 34
12 16 0 29 5 29 10 0 10 -8 11 -47 3z"/>
<path d="M3744 1530 c-59 -9 -74 -16 -74 -35 0 -7 -6 -16 -12 -18 -10 -4 -10
-8 1 -15 14 -10 53 -3 128 25 37 13 41 18 32 34 -5 11 -13 18 -17 18 -4 -1
-30 -5 -58 -9z"/>
<path d="M3573 1504 c4 -5 -3 -14 -15 -21 l-23 -12 23 -1 c12 0 22 5 22 11 0
5 5 7 10 4 6 -3 10 -2 10 3 0 6 -8 13 -17 16 -10 4 -14 4 -10 0z"/>
<path d="M3870 1465 c0 -21 39 -40 53 -26 8 8 5 11 -12 11 -16 0 -21 4 -17 15
3 9 0 15 -9 15 -8 0 -15 -7 -15 -15z"/>
<path d="M3948 1433 c7 -3 16 -2 19 1 4 3 -2 6 -13 5 -11 0 -14 -3 -6 -6z"/>
<path d="M4020 1385 c7 -8 16 -12 21 -9 13 8 1 24 -18 24 -13 0 -13 -3 -3 -15z"/>
<path d="M3581 1329 c-19 -16 -33 -19 -63 -14 -36 6 -54 -7 -25 -18 7 -3 5 -6
-5 -6 -19 -1 -22 -12 -12 -48 4 -13 13 -23 22 -23 9 0 0 -12 -21 -27 -44 -34
-49 -51 -7 -26 26 15 32 16 40 3 6 -9 3 -18 -7 -25 -13 -10 -10 -11 15 -7 40
5 84 -25 118 -84 26 -44 44 -56 44 -29 0 8 9 19 20 25 11 6 20 7 20 2 0 -4 6
-17 14 -27 11 -16 17 -17 29 -7 10 9 17 10 22 2 3 -5 30 -10 60 -10 30 0 56
-4 59 -9 8 -13 43 -2 50 15 3 8 15 14 26 14 25 0 26 28 4 76 -19 41 -31 49
-47 36 -14 -12 -147 -12 -147 0 0 4 -14 8 -31 8 -23 0 -30 4 -26 14 4 10 1 13
-9 9 -9 -3 -14 0 -12 7 2 9 -15 12 -67 11 -38 -1 -83 3 -100 8 -26 8 -21 9 32
9 63 -1 85 9 103 43 7 11 6 17 -3 16 -6 0 -21 1 -32 2 -17 1 -18 3 -5 11 10 6
-2 8 -36 4 -56 -7 -84 10 -35 21 17 3 31 14 34 26 3 10 4 19 4 19 -1 -1 -13
-10 -26 -21z"/>
<path d="M3385 1240 c-3 -5 -1 -10 4 -10 6 0 11 5 11 10 0 6 -2 10 -4 10 -3 0
-8 -4 -11 -10z"/>
<path d="M3404 1134 c-18 -14 -18 -15 4 -4 12 6 22 13 22 15 0 8 -5 6 -26 -11z"/>
<path d="M3246 1025 c-3 -8 -12 -15 -20 -15 -8 0 -17 -4 -20 -9 -3 -4 19 -7
49 -6 32 2 55 -2 55 -7 0 -6 -9 -8 -21 -5 -14 4 -19 2 -15 -8 2 -7 -4 -15 -14
-18 -11 -3 -21 0 -23 6 -4 13 -77 -8 -151 -41 l-38 -17 48 -35 c27 -19 51 -38
52 -42 2 -5 8 -6 13 -2 5 3 9 0 9 -6 0 -17 28 -42 35 -31 3 6 12 8 20 5 9 -4
17 7 25 38 7 24 15 50 18 58 3 8 5 18 4 21 -1 4 8 4 20 1 13 -3 19 -1 15 5 -4
6 4 14 18 17 24 6 36 26 15 26 -5 0 -10 -4 -10 -8 0 -4 -11 -9 -26 -10 -35 -3
-21 14 24 28 20 7 42 17 47 23 7 7 6 8 -3 3 -7 -4 -15 -1 -18 7 -4 11 -14 13
-37 8 -43 -9 -67 -3 -60 15 3 8 3 14 0 14 -3 0 -7 -7 -11 -15z"/>
</g>
</svg>
